<svg xmlns="http://www.w3.org/2000/svg" width="1200" height="630" viewBox="0 0 1200 630">
  <defs>
    <linearGradient id="bg" x1="0" y1="0" x2="1" y2="1">
      <stop offset="0%" stop-color="#071225"/>
      <stop offset="100%" stop-color="#12243d"/>
    </linearGradient>
    <linearGradient id="glow" x1="0" y1="0" x2="1" y2="1">
      <stop offset="0%" stop-color="#38bdf8" stop-opacity=".9"/>
      <stop offset="100%" stop-color="#0ea5e9" stop-opacity=".5"/>
    </linearGradient>
    <filter id="blur"><feGaussianBlur stdDeviation="40"/></filter>
  </defs>
  <rect width="1200" height="630" fill="url(#bg)"/>
  <circle cx="160" cy="80" r="160" fill="#38bdf8" opacity=".15" filter="url(#blur)"/>
  <circle cx="1080" cy="90" r="180" fill="#60a5fa" opacity=".12" filter="url(#blur)"/>
  <circle cx="980" cy="510" r="220" fill="#0ea5e9" opacity=".12" filter="url(#blur)"/>

  <g transform="translate(86 80)">
    <rect x="0" y="0" width="1028" height="470" rx="34" fill="rgba(255,255,255,.06)" stroke="rgba(255,255,255,.12)"/>
    <text x="70" y="120" font-size="80" font-family="DejaVu Sans, Arial, sans-serif" font-weight="700" fill="#f8fafc">طقوس</text>
    <text x="70" y="185" font-size="30" font-family="DejaVu Sans, Arial, sans-serif" fill="#cbd5e1">تطبيق عربي لتوقع وقراءة الطقس مع خريطة تفاعلية ومشاهد متحركة</text>

    <g transform="translate(70 250)">
      <circle cx="80" cy="80" r="42" fill="url(#glow)"/>
      <path d="M188 48c33 0 60 27 60 60 0 6-1 12-3 18 27 7 46 31 46 60 0 35-28 64-64 64H82c-41 0-74-33-74-74 0-39 30-71 68-74 9-32 38-54 72-54h40z" fill="#e2e8f0"/>
      <path d="M92 290c10-16 11-31 3-46 21 13 22 31 12 46" fill="#7dd3fc"/>
      <path d="M150 290c10-16 11-31 3-46 21 13 22 31 12 46" fill="#7dd3fc"/>
      <path d="M208 290c10-16 11-31 3-46 21 13 22 31 12 46" fill="#7dd3fc"/>
    </g>

    <g transform="translate(620 225)">
      <rect x="0" y="0" width="330" height="170" rx="26" fill="rgba(255,255,255,.08)" stroke="rgba(255,255,255,.10)"/>
      <text x="32" y="58" font-size="28" font-family="DejaVu Sans, Arial, sans-serif" fill="#cbd5e1">واجهة خفيفة وسريعة</text>
      <text x="32" y="104" font-size="26" font-family="DejaVu Sans, Arial, sans-serif" fill="#f8fafc">خريطة تفاعلية</text>
      <text x="32" y="140" font-size="26" font-family="DejaVu Sans, Arial, sans-serif" fill="#f8fafc">توقعات يومية وساعية</text>
    </g>
  </g>

  <text x="92" y="596" font-size="22" font-family="DejaVu Sans, Arial, sans-serif" fill="#cbd5e1">Designed &amp; programmed by AHMEDDARRAJ</text>
</svg>